<svg xmlns="http://www.w3.org/2000/svg" xmlns:xlink="http://www.w3.org/1999/xlink" width="500" zoomAndPan="magnify" viewBox="0 0 375 374.999991" height="500" preserveAspectRatio="xMidYMid meet" version="1.0"><defs><clipPath id="e92bb3ca31"><path d="M 81 357 L 294 357 L 294 373.5 L 81 373.5 Z M 81 357 " clip-rule="nonzero"/></clipPath></defs><path fill="#5e17eb" d="M 180.121094 57.417969 C 179.761719 100.402344 179.957031 207.035156 179.761719 260.511719 L 179.761719 348.746094 L 163.40625 348.746094 L 163.40625 303.148438 C 149.992188 306.839844 131.742188 305.101562 123.285156 287.3125 C 123.285156 287.3125 71.402344 303.558594 62.917969 257.898438 C 53.859375 259.964844 6.328125 233.746094 33.175781 186.101562 C 19.273438 175.972656 -6.78125 104.867188 52.585938 82.589844 C 52.585938 82.589844 44.128906 28.835938 100.863281 30.953125 C 109.320312 10.300781 129.535156 0.164062 147.957031 2.285156 C 164.894531 4.238281 180.453125 15.808594 180.121094 57.417969 Z M 180.121094 57.417969 " fill-opacity="1" fill-rule="evenodd"/><path fill="#9d70f6" d="M 47.527344 194.171875 C 36.757812 213.285156 41.632812 234.347656 59.8125 238.457031 C 59.015625 230.273438 59.121094 221.355469 61.4375 213.644531 C 62.761719 209.316406 67.332031 206.867188 71.65625 208.164062 C 75.980469 209.488281 78.40625 214.058594 77.113281 218.382812 C 71.878906 235.707031 77.113281 270.925781 98.121094 273.4375 C 104.042969 274.128906 112.574219 273.4375 118.386719 271.617188 L 119.710938 271.199219 C 117.917969 263.019531 117.203125 253.214844 120.371094 244.238281 C 121.855469 239.972656 126.539062 237.734375 130.804688 239.230469 C 135.046875 240.746094 137.308594 245.398438 135.789062 249.664062 C 131.964844 260.542969 135.324219 287.800781 151.128906 288.269531 C 154.132812 288.351562 159.636719 287.527344 163.191406 285.847656 C 163.21875 283.007812 163.191406 280.117188 163.21875 277.390625 C 163.300781 267.75 163.332031 258.082031 163.363281 248.445312 C 163.390625 235.914062 163.390625 223.355469 163.414062 210.796875 C 156.910156 204.210938 145.296875 201.023438 132.738281 198.378906 C 127.941406 200.027344 114.121094 206.390625 112.359375 224.953125 C 111.921875 229.472656 107.921875 232.773438 103.433594 232.363281 C 98.914062 231.945312 95.617188 227.957031 96.023438 223.4375 C 97.347656 209.472656 103.351562 200.007812 109.957031 193.695312 C 84.238281 187.722656 62.183594 177.585938 65.011719 141.59375 C 65.339844 137.074219 69.277344 133.71875 73.796875 134.050781 C 78.316406 134.40625 81.675781 138.347656 81.339844 142.863281 C 79.109375 171.148438 103.648438 175.964844 127.855469 180.730469 C 140.523438 183.234375 153.105469 185.6875 163.40625 190.96875 L 163.4375 166.183594 C 159.363281 161.148438 151.648438 153.300781 140.085938 148.425781 C 139.921875 148.371094 139.730469 148.28125 139.566406 148.199219 C 132.460938 145.308594 123.921875 143.550781 113.898438 144.261719 C 109.378906 144.589844 105.46875 141.179688 105.113281 136.691406 C 104.785156 132.171875 108.167969 128.234375 112.6875 127.90625 C 120.617188 127.355469 127.832031 128.015625 134.335938 129.472656 C 132.707031 122.726562 128.085938 113.71875 115.71875 106.449219 C 111.839844 104.140625 110.539062 99.152344 112.828125 95.273438 C 115.117188 91.363281 120.125 90.09375 124.003906 92.382812 C 147.4375 106.152344 151.179688 125.675781 151.375 135.730469 C 155.945312 138.070312 159.9375 140.769531 163.4375 143.496094 C 163.4375 126.53125 163.4375 109.542969 163.464844 92.554688 C 161.5625 80.929688 156.25 65.265625 141.796875 58.40625 C 137.722656 56.480469 135.984375 51.605469 137.917969 47.527344 C 139.871094 43.425781 144.746094 41.683594 148.816406 43.648438 C 154.824219 46.484375 159.699219 50.285156 163.660156 54.609375 C 163.628906 42.628906 162.304688 22.304688 148.839844 19.109375 C 147.933594 18.886719 146.996094 18.75 146.0625 18.640625 C 123.476562 16.023438 109.378906 37.09375 125.542969 56.339844 C 128.433594 59.78125 127.996094 64.960938 124.523438 67.851562 C 121.054688 70.773438 115.902344 70.304688 112.984375 66.863281 C 107.527344 60.359375 104.667969 53.703125 103.316406 47.503906 L 100.261719 47.390625 C 64.238281 46.039062 58.621094 83.660156 85.910156 97.734375 C 89.929688 99.828125 91.5 104.757812 89.433594 108.746094 C 87.367188 112.769531 82.410156 114.335938 78.417969 112.269531 C 69.800781 107.832031 63.964844 102.660156 60.027344 97.371094 L 58.375 98 C 40.257812 104.777344 31.554688 117.582031 31.800781 136.777344 C 31.914062 144.847656 33.675781 153.21875 36.511719 160.738281 C 38.800781 166.773438 40.695312 170.042969 43.148438 172.636719 C 44.71875 170.457031 46.753906 168.007812 48.328125 166.550781 C 53.785156 161.371094 64.847656 166.742188 59.894531 174.640625 C 56.414062 180.179688 49.09375 191.394531 47.527344 194.171875 Z M 47.527344 194.171875 " fill-opacity="1" fill-rule="evenodd"/><path fill="#5e17eb" d="M 194.9375 57.417969 C 195.265625 100.402344 195.078125 207.035156 195.265625 260.511719 L 195.265625 348.746094 L 211.621094 348.746094 L 211.621094 303.148438 C 225.035156 306.839844 243.316406 305.101562 251.746094 287.3125 C 251.746094 287.3125 303.625 303.558594 312.109375 257.898438 C 321.167969 259.964844 368.730469 233.746094 341.851562 186.101562 C 355.757812 175.964844 381.8125 104.859375 322.441406 82.589844 C 322.46875 82.589844 330.898438 28.835938 274.164062 30.953125 C 265.707031 10.300781 245.496094 0.164062 227.101562 2.285156 C 210.164062 4.238281 194.582031 15.808594 194.9375 57.417969 Z M 194.9375 57.417969 " fill-opacity="1" fill-rule="evenodd"/><path fill="#9d70f6" d="M 327.507812 194.171875 C 338.308594 213.285156 333.402344 234.347656 315.226562 238.457031 C 316.019531 230.273438 315.914062 221.355469 313.597656 213.644531 C 312.273438 209.316406 307.703125 206.867188 303.410156 208.164062 C 299.082031 209.488281 296.632812 214.058594 297.929688 218.382812 C 303.164062 235.707031 297.929688 270.925781 276.921875 273.4375 C 271 274.128906 262.46875 273.4375 256.679688 271.617188 L 255.328125 271.199219 C 257.148438 263.019531 257.832031 253.214844 254.664062 244.238281 C 253.179688 239.972656 248.496094 237.734375 244.253906 239.230469 C 239.988281 240.746094 237.730469 245.398438 239.246094 249.664062 C 243.070312 260.542969 239.714844 287.800781 223.90625 288.269531 C 220.902344 288.351562 215.398438 287.527344 211.875 285.847656 C 211.824219 283.007812 211.84375 280.117188 211.824219 277.390625 C 211.742188 267.75 211.710938 258.082031 211.710938 248.445312 C 211.660156 235.914062 211.660156 223.355469 211.628906 210.796875 C 218.132812 204.210938 229.746094 201.023438 242.308594 198.378906 C 247.101562 200.027344 260.953125 206.390625 262.714844 224.953125 C 263.128906 229.472656 267.121094 232.773438 271.609375 232.363281 C 276.128906 231.945312 279.425781 227.957031 279.019531 223.4375 C 277.695312 209.472656 271.691406 200.007812 265.085938 193.695312 C 290.804688 187.722656 312.863281 177.585938 310.050781 141.59375 C 309.695312 137.074219 305.757812 133.71875 301.238281 134.050781 C 296.71875 134.40625 293.359375 138.347656 293.695312 142.863281 C 295.925781 171.148438 271.386719 175.964844 247.183594 180.730469 C 234.511719 183.234375 221.929688 185.6875 211.628906 190.96875 L 211.628906 166.183594 C 215.679688 161.148438 223.386719 153.300781 234.957031 148.425781 C 235.121094 148.371094 235.3125 148.28125 235.476562 148.199219 C 242.582031 145.308594 251.121094 143.550781 261.144531 144.261719 C 265.664062 144.589844 269.601562 141.179688 269.929688 136.691406 C 270.257812 132.171875 266.875 128.234375 262.355469 127.90625 C 254.425781 127.355469 247.210938 128.015625 240.707031 129.472656 C 242.335938 122.726562 246.957031 113.71875 259.324219 106.449219 C 263.234375 104.140625 264.503906 99.152344 262.214844 95.273438 C 259.925781 91.363281 254.917969 90.09375 251.039062 92.382812 C 227.605469 106.152344 223.882812 125.675781 223.667969 135.730469 C 219.128906 138.070312 215.105469 140.769531 211.636719 143.496094 C 211.636719 126.53125 211.636719 109.542969 211.585938 92.554688 C 213.488281 80.929688 218.800781 65.265625 233.253906 58.40625 C 237.328125 56.480469 239.066406 51.605469 237.132812 47.527344 C 235.179688 43.425781 230.304688 41.683594 226.230469 43.648438 C 220.226562 46.484375 215.351562 50.285156 211.390625 54.609375 C 211.445312 42.628906 212.765625 22.304688 226.210938 19.109375 C 227.144531 18.886719 228.054688 18.75 228.988281 18.640625 C 251.597656 16.023438 265.671875 37.09375 249.53125 56.339844 C 246.609375 59.78125 247.046875 64.960938 250.519531 67.851562 C 253.988281 70.773438 259.140625 70.304688 262.058594 66.863281 C 267.515625 60.359375 270.375 53.703125 271.726562 47.503906 L 274.8125 47.390625 C 310.832031 46.039062 316.421875 83.660156 289.132812 97.734375 C 285.113281 99.828125 283.542969 104.757812 285.609375 108.746094 C 287.707031 112.769531 292.632812 114.335938 296.625 112.269531 C 305.246094 107.832031 311.078125 102.660156 315.015625 97.371094 L 316.695312 98 C 334.792969 104.777344 343.496094 117.582031 343.242188 136.777344 C 343.128906 144.847656 341.367188 153.21875 338.53125 160.738281 C 336.242188 166.773438 334.347656 170.042969 331.894531 172.636719 C 330.324219 170.457031 328.289062 168.007812 326.742188 166.550781 C 321.265625 161.371094 310.195312 166.742188 315.148438 174.640625 C 318.613281 180.179688 325.933594 191.394531 327.507812 194.171875 Z M 327.507812 194.171875 " fill-opacity="1" fill-rule="evenodd"/><path fill="#5e17eb" d="M 109.816406 340.871094 L 265.242188 340.871094 L 265.242188 357.226562 L 109.816406 357.226562 Z M 109.816406 340.871094 " fill-opacity="1" fill-rule="evenodd"/><g clip-path="url(#e92bb3ca31)"><path fill="#5e17eb" d="M 81.035156 357.226562 L 293.992188 357.226562 L 293.992188 373.582031 L 81.035156 373.582031 Z M 81.035156 357.226562 " fill-opacity="1" fill-rule="evenodd"/></g></svg>